<svg width="257" height="46" viewBox="0 0 257 46" fill="none" xmlns="http://www.w3.org/2000/svg">
<path d="M0 1.66211H6.53853V11.072H6.60875C8.37675 9.44868 10.7092 8.58067 13.1083 8.65318C18.929 8.65318 22.8536 12.3126 22.8536 17.6417V29.2363H16.3229V18.8902C16.3229 15.9798 14.622 14.3569 11.5634 14.3569C8.50477 14.3569 6.53853 16.1671 6.53853 18.8902V29.2363H0V1.66211Z" fill="white"/>
<path d="M25.9921 23.6106C25.9921 19.9434 28.6371 18.0162 35.0196 17.1501C38.757 16.6195 39.8572 16.0967 39.8572 15.1136C39.8572 14.0447 38.5698 13.2644 36.6738 13.2644C34.1848 13.2644 32.4058 14.5518 31.9532 16.6663L25.9531 15.6052C26.6709 11.4152 31.0169 8.46582 36.4553 8.46582C42.6505 8.49703 46.505 11.7039 46.505 16.7756V29.2596H40.575V27.2388H40.497C39.0145 28.8695 36.6035 29.8058 33.662 29.8058C28.9727 29.8058 25.9921 27.387 25.9921 23.6106ZM40.1927 21.6443V19.6469H40.1225C39.7011 20.2477 38.757 20.63 36.3461 21.1138C33.3187 21.7224 32.3043 22.2529 32.3043 23.2673C32.3043 24.2816 33.2094 24.781 35.0976 24.781C37.891 24.781 40.1927 23.3453 40.1927 21.6443Z" fill="white"/>
<path d="M72.6797 23.1971L78.8047 21.4571C79.4913 23.7277 81.5668 24.9293 84.7034 24.9293C87.3484 24.9293 88.8153 24.4455 88.8153 23.5716C88.8153 22.6977 87.6449 22.0969 83.6812 21.4961C76.659 20.435 73.7798 18.5858 73.7798 14.9576C73.7798 11.1032 77.6811 8.49707 83.6032 8.49707C88.9324 8.49707 93.4266 10.9939 94.597 14.5441L88.7061 16.284C88.0273 14.5831 85.9128 13.4517 83.3379 13.4517C81.2234 13.4517 80.0141 13.9745 80.0141 14.8484C80.0141 15.7223 80.9972 16.0968 85.3432 16.7756C92.2094 17.946 95.19 19.6781 95.19 23.4078C95.19 27.4105 91.1093 29.9385 84.4615 29.9385C78.4613 29.9541 73.772 27.2388 72.6797 23.1971Z" fill="white"/>
<path d="M107.365 14.466V21.6833C107.365 22.8927 107.856 23.3453 109.253 23.3453H112.991V29.2362H108.27C103.058 29.2362 100.826 26.9344 100.826 22.2919V14.4894H96.1445V9.21483H100.826V4.04175H107.365V9.21483H113.747V14.466H107.365Z" fill="white"/>
<path d="M115.594 23.6106C115.594 19.9434 118.239 18.0162 124.622 17.1501C128.367 16.6195 129.46 16.0967 129.46 15.1136C129.46 14.0135 128.172 13.2956 126.245 13.2956C123.756 13.2956 121.977 14.583 121.524 16.6975L115.555 15.6052C116.273 11.4152 120.619 8.46582 126.058 8.46582C132.253 8.46582 136.107 11.6415 136.107 16.7444V29.2284H130.177V27.2388H130.099C128.593 28.9007 126.198 29.8058 123.264 29.8058C118.598 29.8058 115.594 27.387 115.594 23.6106ZM129.795 21.6443V19.6469H129.725C129.311 20.2477 128.367 20.63 125.948 21.1138C122.921 21.7224 121.907 22.2529 121.907 23.2673C121.907 24.2816 122.812 24.781 124.7 24.781C127.493 24.781 129.795 23.3453 129.795 21.6443Z" fill="white"/>
<path d="M139.164 19.2256C139.164 13.0304 144.041 8.49707 150.571 8.49707C155.861 8.49707 160.129 11.4075 161.3 15.6754L155.222 17.5324C154.944 16.5233 154.326 15.6408 153.474 15.0339C152.621 14.4269 151.585 14.1327 150.54 14.2008C147.669 14.2008 145.671 16.206 145.671 19.2256C145.671 22.2452 147.669 24.2504 150.54 24.2504C151.584 24.3219 152.621 24.03 153.474 23.4241C154.327 22.8182 154.945 21.9358 155.222 20.9266L161.3 22.7758C160.129 27.0515 155.838 29.9541 150.571 29.9541C144.041 29.9541 139.164 25.4208 139.164 19.2256Z" fill="white"/>
<path d="M164.516 1.66211H171.046V16.487H171.124L179.395 9.19156H188.352L178.833 17.3374L188.462 29.2363H180.76L174.518 21.1919H174.44L171.039 23.9852V29.2363H164.508L164.516 1.66211Z" fill="white"/>
<path d="M188.09 23.1971L194.207 21.4571C194.886 23.7277 196.969 24.9293 200.098 24.9293C202.743 24.9293 204.218 24.4455 204.218 23.5716C204.218 22.6977 203.047 22.0969 199.084 21.4961C192.061 20.435 189.182 18.5858 189.182 14.9576C189.182 11.1032 193.084 8.49707 199.006 8.49707C204.335 8.49707 208.829 10.9939 209.999 14.5441L204.109 16.284C203.43 14.5831 201.307 13.4517 198.74 13.4517C196.626 13.4517 195.416 13.9745 195.416 14.8484C195.416 15.7223 196.4 16.0968 200.746 16.7756C207.62 17.907 210.569 19.6781 210.569 23.4234C210.569 27.4261 206.488 29.9541 199.841 29.9541C193.872 29.9541 189.182 27.2388 188.09 23.1971Z" fill="white"/>
<path d="M214.57 22.292H221.709V29.2362H214.57V22.292Z" fill="white"/>
<path d="M226.164 23.6106C226.164 19.9434 228.81 18.0162 235.192 17.1501C238.937 16.6195 240.03 16.0967 240.03 15.1136C240.03 14.0447 238.758 13.2644 236.815 13.2644C234.326 13.2644 232.547 14.5518 232.094 16.6663L226.125 15.6052C226.843 11.4152 231.189 8.46582 236.628 8.46582C242.823 8.46582 246.677 11.6415 246.677 16.7444V29.2284H240.747V27.2388H240.669C239.164 28.9007 236.768 29.8058 233.834 29.8058C229.153 29.8058 226.164 27.387 226.164 23.6106ZM240.365 21.6443V19.6469H240.318C239.905 20.2477 238.961 20.63 236.542 21.1138C233.514 21.7224 232.5 22.2529 232.5 23.2673C232.5 24.2816 233.405 24.781 235.293 24.781C238.063 24.781 240.365 23.3453 240.365 21.6443Z" fill="white"/>
<path d="M250.461 0H256.999V6.11719H250.461V0ZM250.461 9.2148H256.999V29.2361H250.461V9.2148Z" fill="white"/>
<path d="M59.3713 19.6781L54.6274 9.21484H47.332L56.2737 27.27L59.3713 19.6781Z" fill="white"/>
<path d="M54.6951 39.5899C54.8071 39.5899 54.898 39.4991 54.898 39.387C54.898 39.2749 54.8071 39.1841 54.6951 39.1841C54.583 39.1841 54.4922 39.2749 54.4922 39.387C54.4922 39.4991 54.583 39.5899 54.6951 39.5899Z" fill="white"/>
<path d="M72.0638 4.36163H72.017C71.6477 4.18153 71.2454 4.07909 70.8349 4.06064C70.4245 4.0422 70.0146 4.10815 69.6307 4.25441C69.2468 4.40068 68.8969 4.62414 68.6028 4.911C68.3086 5.19785 68.0765 5.54199 67.9206 5.92214L52.1283 45.2548C52.1221 45.2671 52.1185 45.2804 52.1175 45.2942C52.1165 45.3079 52.1183 45.3216 52.1226 45.3347C52.1269 45.3477 52.1338 45.3598 52.1428 45.3702C52.1518 45.3806 52.1628 45.3891 52.1751 45.3952C52.1874 45.4014 52.2008 45.405 52.2145 45.406C52.2282 45.407 52.242 45.4052 52.255 45.4009C52.2681 45.3965 52.2801 45.3897 52.2905 45.3807C52.3009 45.3717 52.3094 45.3607 52.3155 45.3484L73.3434 8.5828C73.5528 8.22542 73.6861 7.82858 73.7348 7.41722C73.7835 7.00586 73.7467 6.58887 73.6265 6.19245C73.5063 5.79602 73.3055 5.42874 73.0365 5.11367C72.7676 4.79861 72.4364 4.54256 72.0638 4.36163ZM71.5098 8.17707L70.5813 9.7844C70.5208 9.91043 70.4361 10.0234 70.3321 10.1167C70.228 10.21 70.1065 10.2819 69.9747 10.3282C69.7084 10.4219 69.4158 10.4059 69.1612 10.2838C68.9067 10.1617 68.7111 9.94346 68.6174 9.67715C68.5238 9.41084 68.5398 9.11823 68.6619 8.8637L69.3485 7.13934C69.4106 6.989 69.5028 6.85294 69.6194 6.73951C69.736 6.62608 69.8745 6.53768 70.0265 6.47972C70.1785 6.42177 70.3407 6.39549 70.5033 6.4025C70.6658 6.40951 70.8251 6.44966 70.9716 6.52048C71.118 6.59131 71.2484 6.69131 71.3548 6.81436C71.4612 6.9374 71.5414 7.08089 71.5903 7.23602C71.6392 7.39115 71.656 7.55465 71.6394 7.71647C71.6229 7.8783 71.5735 8.03504 71.4942 8.17707H71.5098Z" fill="#3DFF4F"/>
</svg>
